<svg width="678" height="373" viewBox="0 0 678 373" fill="none" xmlns="http://www.w3.org/2000/svg">
<rect width="678" height="373" fill="#F5F5F5"/>
<mask id="path-1-inside-1_8_29" fill="white">
<path d="M36.7557 39.0338C36.2523 37.8637 35.0567 37.0995 33.7292 37.0995H21.0029C19.1966 37.0995 17.7323 38.4943 17.7323 40.215V121.218C17.7323 122.939 19.1966 124.333 21.0029 124.333H28.7263C30.5326 124.333 31.9969 122.939 31.9969 121.218V61.8844C31.9969 61.6453 32.2003 61.4515 32.4513 61.4515C32.6368 61.4515 32.8036 61.5588 32.8729 61.7225L54.6117 113.091C55.1106 114.269 56.311 115.041 57.6451 115.041H63.8895C65.2228 115.041 66.4225 114.27 66.922 113.093L87.8038 70.3449C76.0671 97.6359 77.7527 94.0443 87.8038 70.3449C79.7355 80.8731 75.8108 85.9943 87.8038 70.3449L89.536 121.218C89.536 122.939 91.0003 124.333 92.8066 124.333H100.53C102.336 124.333 103.801 122.939 103.801 121.218V85.5362V52.0475C103.801 50.3268 105.265 48.932 107.071 48.932H123.162C126.875 48.932 129.907 49.5299 132.258 50.7259C134.635 51.8964 136.385 53.5377 137.506 55.6497C138.656 57.7617 139.229 60.2045 139.229 62.9783C139.229 65.7519 138.656 68.2074 137.506 70.3449C136.385 72.4824 134.648 74.1618 132.298 75.3833C129.947 76.6046 126.929 77.2154 123.242 77.2154H111.026C109.22 77.2154 107.755 78.6102 107.755 80.3309V85.7415C107.755 87.4622 109.22 88.857 111.026 88.857H125.246C131.577 88.857 136.906 87.75 141.234 85.5362C145.56 83.297 148.833 80.2308 151.05 76.3375C153.268 72.4442 154.375 67.9911 154.375 62.9783C154.375 58.0162 153.268 53.5886 151.05 49.6953C148.86 45.7766 145.614 42.6976 141.313 40.4584C137.04 38.2191 131.75 37.0995 125.446 37.0995H92.959C90.1377 37.0995 87.8791 39.4392 87.9356 42.2599C88.9167 91.2648 79.7191 54.5172 79.232 55.6497C79.1217 55.9062 61.0573 93.7427 60.7664 93.7427C60.4756 93.7427 60.2136 93.5752 60.1034 93.3188L36.7557 39.0338Z"/>
</mask>
<path d="M36.7557 39.0338C36.2523 37.8637 35.0567 37.0995 33.7292 37.0995H21.0029C19.1966 37.0995 17.7323 38.4943 17.7323 40.215V121.218C17.7323 122.939 19.1966 124.333 21.0029 124.333H28.7263C30.5326 124.333 31.9969 122.939 31.9969 121.218V61.8844C31.9969 61.6453 32.2003 61.4515 32.4513 61.4515C32.6368 61.4515 32.8036 61.5588 32.8729 61.7225L54.6117 113.091C55.1106 114.269 56.311 115.041 57.6451 115.041H63.8895C65.2228 115.041 66.4225 114.27 66.922 113.093L87.8038 70.3449C76.0671 97.6359 77.7527 94.0443 87.8038 70.3449C79.7355 80.8731 75.8108 85.9943 87.8038 70.3449L89.536 121.218C89.536 122.939 91.0003 124.333 92.8066 124.333H100.53C102.336 124.333 103.801 122.939 103.801 121.218V85.5362V52.0475C103.801 50.3268 105.265 48.932 107.071 48.932H123.162C126.875 48.932 129.907 49.5299 132.258 50.7259C134.635 51.8964 136.385 53.5377 137.506 55.6497C138.656 57.7617 139.229 60.2045 139.229 62.9783C139.229 65.7519 138.656 68.2074 137.506 70.3449C136.385 72.4824 134.648 74.1618 132.298 75.3833C129.947 76.6046 126.929 77.2154 123.242 77.2154H111.026C109.22 77.2154 107.755 78.6102 107.755 80.3309V85.7415C107.755 87.4622 109.22 88.857 111.026 88.857H125.246C131.577 88.857 136.906 87.75 141.234 85.5362C145.56 83.297 148.833 80.2308 151.05 76.3375C153.268 72.4442 154.375 67.9911 154.375 62.9783C154.375 58.0162 153.268 53.5886 151.05 49.6953C148.86 45.7766 145.614 42.6976 141.313 40.4584C137.04 38.2191 131.75 37.0995 125.446 37.0995H92.959C90.1377 37.0995 87.8791 39.4392 87.9356 42.2599C88.9167 91.2648 79.7191 54.5172 79.232 55.6497C79.1217 55.9062 61.0573 93.7427 60.7664 93.7427C60.4756 93.7427 60.2136 93.5752 60.1034 93.3188L36.7557 39.0338Z" fill="#1E1E1E"/>
<path d="M36.7557 39.0338L66.152 26.3905L66.1513 26.3889L36.7557 39.0338ZM32.8729 61.7225L3.39775 74.1812L3.40319 74.1941L32.8729 61.7225ZM54.6117 113.091L25.1421 125.562L25.1433 125.565L54.6117 113.091ZM66.922 113.093L38.1691 99.0472L37.7949 99.8132L37.4621 100.598L66.922 113.093ZM87.8038 70.3449L119.785 69.2559L62.4045 50.8801L87.8038 70.3449ZM89.536 121.218H121.536V120.673L121.517 120.129L89.536 121.218ZM132.258 50.7259L117.747 79.2468L117.935 79.3422L118.123 79.435L132.258 50.7259ZM137.506 55.6497L109.244 70.6584L109.321 70.8026L109.399 70.946L137.506 55.6497ZM137.506 70.3449L109.323 55.1898L109.246 55.3327L109.171 55.4763L137.506 70.3449ZM132.298 75.3833L147.051 103.779L147.053 103.778L132.298 75.3833ZM141.234 85.5362L155.806 114.026L155.874 113.991L155.942 113.956L141.234 85.5362ZM151.05 76.3375L123.245 60.4974L123.241 60.5038L151.05 76.3375ZM151.05 49.6953L123.114 65.3037L123.179 65.4198L123.245 65.5354L151.05 49.6953ZM141.313 40.4584L126.46 68.8026L126.498 68.822L126.535 68.8414L141.313 40.4584ZM79.232 55.6497L108.628 68.295L108.629 68.2922L79.232 55.6497ZM60.1034 93.3188L89.5039 80.685L89.4998 80.6755L60.1034 93.3188ZM87.9356 42.2599L119.929 41.6194L87.9356 42.2599ZM66.1513 26.3889C60.3249 12.8442 47.1419 5.09946 33.7292 5.09946V69.0995C22.9714 69.0995 12.1798 62.8833 7.35997 51.6787L66.1513 26.3889ZM33.7292 5.09946H21.0029V69.0995H33.7292V5.09946ZM21.0029 5.09946C3.00595 5.09946 -14.2677 19.3743 -14.2677 40.215H49.7323C49.7323 57.6143 35.3872 69.0995 21.0029 69.0995V5.09946ZM-14.2677 40.215V121.218H49.7323V40.215H-14.2677ZM-14.2677 121.218C-14.2677 142.059 3.00633 156.333 21.0029 156.333V92.3333C35.3868 92.3333 49.7323 103.818 49.7323 121.218H-14.2677ZM21.0029 156.333H28.7263V92.3333H21.0029V156.333ZM28.7263 156.333C46.7218 156.333 63.9969 142.06 63.9969 121.218H-0.00306299C-0.00306299 103.817 14.3433 92.3333 28.7263 92.3333V156.333ZM63.9969 121.218V61.8844H-0.00306299V121.218H63.9969ZM63.9969 61.8844C63.9969 80.7569 48.3998 93.4515 32.4513 93.4515V29.4515C16.0008 29.4515 -0.00306299 42.5338 -0.00306299 61.8844H63.9969ZM32.4513 93.4515C20.4978 93.4515 8.60935 86.511 3.39775 74.1812L62.348 49.2639C56.9979 36.6066 44.7758 29.4515 32.4513 29.4515V93.4515ZM3.40319 74.1941L25.1421 125.562L84.0814 100.619L62.3425 49.251L3.40319 74.1941ZM25.1433 125.565C30.9228 139.218 44.1661 147.041 57.6451 147.041V83.0411C68.4558 83.0411 79.2985 89.3204 84.0802 100.616L25.1433 125.565ZM57.6451 147.041H63.8895V83.0411H57.6451V147.041ZM63.8895 147.041C77.359 147.041 90.5962 139.229 96.3818 125.587L37.4621 100.598C42.2489 89.3115 53.0867 83.0411 63.8895 83.0411V147.041ZM95.6748 127.138L116.557 84.3904L59.0509 56.2995L38.1691 99.0472L95.6748 127.138ZM58.3437 57.8507C53.1096 70.1922 50.5394 76.1386 50.6651 75.8707C50.7064 75.7828 50.8462 75.485 51.037 75.1056C51.1229 74.9348 51.3344 74.5169 51.6241 73.9935C51.7736 73.7264 52.1533 73.0735 52.3861 72.6901C52.7697 72.0836 53.9345 70.4064 54.7461 69.3599C56.8517 67.0057 69.4725 59.142 81.1408 57.5261C99.3652 64.3071 111.411 85.8317 111.565 91.3866C111.395 93.2907 110.931 96.1014 110.724 97.0155C110.589 97.5513 110.345 98.4348 110.242 98.7832C109.918 99.8506 109.596 100.691 109.594 100.697C109.449 101.083 109.33 101.376 109.326 101.386C109.295 101.465 109.274 101.516 109.272 101.52C109.267 101.531 109.281 101.498 109.322 101.399C109.361 101.308 109.412 101.184 109.48 101.025C109.753 100.378 110.211 99.2983 110.873 97.7458C112.192 94.6536 114.274 89.792 117.201 82.9872L58.407 57.7026C55.4651 64.5433 53.3565 69.4669 52.0047 72.6362C51.3314 74.2145 50.8343 75.385 50.512 76.1489C50.3608 76.5073 50.2109 76.8644 50.0945 77.1469C50.063 77.2235 50.0174 77.3346 49.9665 77.4609C49.9436 77.5178 49.8106 77.8463 49.6581 78.2537C49.6515 78.2713 49.3272 79.1192 49.0017 80.1914C48.8978 80.541 48.6539 81.4254 48.5191 81.962C48.3118 82.877 47.8478 85.6882 47.6775 87.5927C47.831 93.148 59.8772 114.673 78.1017 121.454C89.7702 119.838 102.391 111.974 104.497 109.619C105.309 108.573 106.474 106.895 106.858 106.288C107.092 105.903 107.472 105.25 107.622 104.981C107.913 104.455 108.126 104.034 108.214 103.86C108.409 103.473 108.554 103.164 108.602 103.062C109.149 101.896 112.447 94.1971 117.264 82.8391L58.3437 57.8507ZM62.4045 50.8801C59.4063 54.7925 57.4029 57.4067 56.2104 58.9628C55.6141 59.7408 55.2206 60.2543 55.0068 60.5333C54.8999 60.6728 54.8379 60.7537 54.818 60.7797C54.8155 60.7829 54.8137 60.7853 54.8125 60.7869C54.8119 60.7876 54.8115 60.7882 54.8112 60.7885C54.8111 60.7887 54.811 60.7888 54.8109 60.7889C54.8109 60.7889 99.6749 54.8545 105.609 99.7184C105.61 99.7181 105.612 99.7145 105.618 99.7075C105.629 99.6935 105.649 99.6663 105.68 99.6263C106.171 98.9861 109.169 95.0738 113.203 89.8097L62.4045 50.8801C58.3703 56.1443 55.3721 60.0566 54.8815 60.6968C54.8509 60.7368 54.83 60.764 54.8193 60.778C54.8139 60.7849 54.8111 60.7886 54.8109 60.789C60.7454 105.653 105.609 99.7185 105.609 99.7184C105.61 99.7184 105.61 99.7182 105.61 99.7181C105.61 99.7177 105.61 99.7172 105.611 99.7164C105.612 99.7148 105.614 99.7124 105.617 99.7092C105.636 99.6832 105.698 99.6023 105.805 99.4628C106.019 99.1838 106.413 98.6703 107.009 97.8923C108.201 96.3362 110.205 93.722 113.203 89.8097L62.4045 50.8801ZM55.8223 71.4339L57.5546 122.307L121.517 120.129L119.785 69.2559L55.8223 71.4339ZM57.536 121.218C57.536 142.059 74.8101 156.333 92.8066 156.333V92.3333C107.19 92.3333 121.536 103.818 121.536 121.218H57.536ZM92.8066 156.333H100.53V92.3333H92.8066V156.333ZM100.53 156.333C118.526 156.333 135.801 142.06 135.801 121.218H71.8006C71.8006 103.817 86.1469 92.3333 100.53 92.3333V156.333ZM135.801 52.0475C135.801 69.4467 121.456 80.932 107.071 80.932V16.932C89.0741 16.932 71.8006 31.2069 71.8006 52.0475H135.801ZM107.071 80.932H123.162V16.932H107.071V80.932ZM123.162 80.932C123.341 80.932 122.911 80.9497 122.029 80.7757C121.135 80.5994 119.604 80.1914 117.747 79.2468L146.768 22.205C138.47 17.983 129.987 16.932 123.162 16.932V80.932ZM118.123 79.435C115.154 77.9732 111.616 75.1241 109.244 70.6584L165.768 40.6411C161.154 31.9514 154.116 25.8197 146.392 22.0168L118.123 79.435ZM109.399 70.946C107.621 67.6794 107.229 64.7103 107.229 62.9783H171.229C171.229 55.6988 169.69 47.844 165.614 40.3535L109.399 70.946ZM107.229 62.9783C107.229 61.2364 107.624 58.3481 109.323 55.1898L165.69 85.5C169.687 78.0667 171.229 70.2674 171.229 62.9783H107.229ZM109.171 55.4763C111.384 51.2573 114.685 48.4732 117.543 46.988L147.053 103.778C154.612 99.8504 161.385 93.7074 165.842 85.2135L109.171 55.4763ZM117.544 46.9872C121.181 45.098 123.691 45.2154 123.242 45.2154V109.215C130.166 109.215 138.714 108.111 147.051 103.779L117.544 46.9872ZM123.242 45.2154H111.026V109.215H123.242V45.2154ZM111.026 45.2154C93.0287 45.2154 75.7553 59.4904 75.7553 80.3309H139.755C139.755 97.73 125.41 109.215 111.026 109.215V45.2154ZM75.7553 80.3309V85.7415H139.755V80.3309H75.7553ZM75.7553 85.7415C75.7553 106.582 93.0286 120.857 111.026 120.857V56.857C125.41 56.857 139.755 68.3424 139.755 85.7415H75.7553ZM111.026 120.857H125.246V56.857H111.026V120.857ZM125.246 120.857C135.165 120.857 145.813 119.137 155.806 114.026L126.661 57.0469C127.33 56.705 127.674 56.6558 127.483 56.6955C127.272 56.7393 126.57 56.857 125.246 56.857V120.857ZM155.942 113.956C165.257 109.135 173.313 101.908 178.858 92.1712L123.241 60.5038C123.722 59.6589 124.349 58.8657 125.052 58.2072C125.739 57.5629 126.301 57.233 126.525 57.1167L155.942 113.956ZM178.854 92.1776C184.139 82.9001 186.375 72.8666 186.375 62.9783H122.375C122.375 63.1185 122.361 62.8722 122.492 62.3484C122.627 61.8059 122.87 61.1554 123.245 60.4974L178.854 92.1776ZM186.375 62.9783C186.375 53.0783 184.112 43.0839 178.854 33.8552L123.245 65.5354C122.885 64.9038 122.641 64.2632 122.502 63.707C122.367 63.1681 122.375 62.8898 122.375 62.9783H186.375ZM178.985 34.0868C173.502 24.2749 165.463 16.9546 156.092 12.0754L126.535 68.8414C126.262 68.6994 125.663 68.3393 124.95 67.6627C124.222 66.9725 123.59 66.1553 123.114 65.3037L178.985 34.0868ZM156.166 12.1141C146.121 6.85046 135.39 5.09946 125.446 5.09946V69.0995C126.729 69.0995 127.372 69.2154 127.514 69.2455C127.634 69.2709 127.208 69.1945 126.46 68.8026L156.166 12.1141ZM125.446 5.09946H92.959V69.0995H125.446V5.09946ZM55.942 42.9004C56.0567 48.628 56.0127 52.6949 55.8928 55.4839C55.8334 56.8664 55.7613 57.7854 55.7051 58.3339C55.644 58.9308 55.6279 58.8259 55.7493 58.2513C55.8144 57.9435 55.9479 57.3618 56.1869 56.5861C56.4177 55.8372 56.8293 54.6365 57.5172 53.1808C58.1818 51.7744 59.349 49.606 61.2689 47.2427C63.1989 44.8669 66.3307 41.7568 70.9886 39.3369C73.3421 38.1141 75.9775 37.127 78.8509 36.5117C81.729 35.8953 84.6038 35.704 87.3853 35.8806C92.9384 36.2331 97.3478 37.9878 100.352 39.6362C103.305 41.2563 105.399 43.0391 106.68 44.2652C108.002 45.5305 108.943 46.6716 109.533 47.4416C110.666 48.9193 111.294 50.0702 111.469 50.3961C111.698 50.8209 111.785 51.0317 111.736 50.921C111.624 50.6655 111.39 50.084 111.013 49.0456C110.835 48.5582 110.665 48.0776 110.465 47.513C110.294 47.0303 110.041 46.3115 109.799 45.6573C109.672 45.3163 109.497 44.8511 109.292 44.3388C109.119 43.9048 108.756 43.0144 108.253 41.9684C108 41.4434 107.558 40.5584 106.942 39.5106C106.626 38.972 106.179 38.2467 105.603 37.4184C105.053 36.6272 104.181 35.4456 102.98 34.1244C102.363 33.4461 101.568 32.629 100.59 31.757C99.6225 30.8942 98.3333 29.8493 96.7188 28.7999C95.1146 27.7573 92.9557 26.5581 90.2637 25.5734C87.5417 24.5777 84.1203 23.747 80.1529 23.6363C76.102 23.5234 71.9234 24.1778 67.885 25.7125C63.8908 27.2304 60.6323 29.3797 58.0868 31.6232C55.5897 33.824 53.8018 36.0902 52.5515 37.9796C51.3 39.8709 50.4327 41.6182 49.8353 43.0073L108.629 68.2922C107.569 70.7561 105.22 75.3921 100.403 79.6369C94.8908 84.4953 87.1727 87.8569 78.3694 87.6115C70.5246 87.3928 64.8106 84.3913 61.842 82.4619C58.7761 80.4693 56.7145 78.3752 55.6253 77.1772C53.4769 74.8141 52.1976 72.6725 51.7695 71.9443C51.193 70.9636 50.7949 70.1613 50.5891 69.7339C49.9446 68.3955 49.5979 67.386 49.7736 67.8611C50.1941 68.9977 49.9552 68.4105 50.8583 70.8966C51.3965 72.3784 52.2027 74.5349 53.1809 76.7523C53.9229 78.4344 55.7402 82.4639 58.7355 86.3723C60.0947 88.1458 63.5972 92.4703 69.5682 95.7462C72.8421 97.5424 77.5171 99.383 83.3309 99.752C89.408 100.138 95.3239 98.8158 100.494 96.1297C109.897 91.2447 113.994 83.4607 115.382 80.5235C117.091 76.9085 117.925 73.5737 118.367 71.4822C119.276 67.1803 119.649 62.5358 119.834 58.2333C120.031 53.6477 120.06 48.143 119.929 41.6194L55.942 42.9004ZM49.8365 43.0044C49.9792 42.6728 50.0982 42.4128 50.109 42.3889C50.1468 42.3059 50.1766 42.2415 50.1902 42.2121C50.2189 42.1503 50.2398 42.1058 50.2438 42.0971C50.2549 42.0734 50.2572 42.0687 50.2435 42.0977C50.2191 42.1492 50.1755 42.2412 50.1091 42.3808C49.9787 42.6552 49.7851 43.0617 49.535 43.5862C49.036 44.6326 48.3253 46.1207 47.4724 47.9042C45.7664 51.4717 43.5001 56.2019 41.2306 60.9191C38.9547 65.6498 36.7012 70.314 35.0107 73.7718C34.156 75.5199 33.4965 76.8547 33.0666 77.7072C32.8332 78.17 32.7652 78.2962 32.8056 78.2207C32.8245 78.1854 32.8744 78.0926 32.948 77.96C33.0112 77.8462 33.1584 77.5833 33.3636 77.2394C33.4774 77.0485 34.0178 76.1376 34.8189 75.0243C35.1384 74.5805 36.1784 73.1421 37.757 71.5074C38.5045 70.7332 40.1878 69.0551 42.6683 67.3533C43.8823 66.5605 46.8605 64.9227 48.6409 64.1293C51.1298 63.2284 57.2037 61.9417 60.7664 61.7427V125.743C70.6001 125.743 77.2421 121.247 78.8729 120.129C81.3569 118.425 83.044 116.743 83.796 115.964C85.3834 114.32 86.4344 112.868 86.7669 112.406C87.5942 111.257 88.1692 110.291 88.3258 110.029C88.7606 109.3 89.1019 108.664 89.2354 108.415C89.5724 107.785 89.9225 107.098 90.2112 106.526C90.8252 105.308 91.6256 103.685 92.5071 101.882C94.2889 98.2371 96.613 93.4261 98.9033 88.6656C103.164 79.8103 108.219 69.2446 108.628 68.295L49.8365 43.0044ZM60.7664 61.7427C72.5605 61.7427 84.292 68.5565 89.5039 80.685L30.7029 105.953C36.1351 118.594 48.3908 125.743 60.7664 125.743V61.7427ZM89.4998 80.6755L66.152 26.3905L7.35926 51.6771L30.707 105.962L89.4998 80.6755ZM135.801 121.218V85.5362H71.8006V121.218H135.801ZM135.801 85.5362V52.0475H71.8006V85.5362H135.801ZM92.959 5.09946C71.9254 5.09946 55.5325 22.4493 55.942 42.9004L119.929 41.6194C120.226 56.429 108.35 69.0995 92.959 69.0995V5.09946Z" fill="black" mask="url(#path-1-inside-1_8_29)"/>
<path d="M166.117 111.992C166.118 113.656 164.765 115.002 163.102 114.994L134.556 114.856L108.001 114.842C106.345 114.841 105.004 113.499 105.003 111.844L105.001 105.95C105.001 104.292 106.345 102.948 108.003 102.948L163.117 102.963C164.773 102.964 166.115 104.306 166.115 105.962L166.117 111.992Z" fill="#1D62E3"/>
<path d="M182.14 111.189C181.22 114.019 178.582 115.935 175.605 115.935V115.935C170.895 115.935 167.581 111.303 169.103 106.845L190.959 42.8037C191.926 39.9696 194.589 38.0646 197.584 38.0646H204.453C207.447 38.0646 210.109 39.9682 211.077 42.8009L232.964 106.843C234.488 111.301 231.174 115.935 226.463 115.935V115.935C223.488 115.935 220.852 114.021 219.93 111.193L201.404 54.3145C201.349 54.1474 201.193 54.0342 201.018 54.0342V54.0342C200.842 54.0342 200.686 54.1475 200.631 54.3147L182.14 111.189ZM181.076 91.0684C181.076 87.9395 183.612 85.403 186.741 85.403H215.22C218.349 85.403 220.885 87.9395 220.885 91.0684V91.0684C220.885 94.1974 218.349 96.7338 215.22 96.7338H186.741C183.612 96.7338 181.076 94.1974 181.076 91.0684V91.0684Z" fill="#1D62E3"/>
<path d="M305.234 56.6628C306.688 60.596 303.365 64.3384 299.172 64.3384V64.3384C295.781 64.3384 293.057 61.7804 291.478 58.7793C291.364 58.5628 291.246 58.35 291.123 58.1407C290.066 56.3156 288.752 54.7693 287.179 53.5019C285.606 52.2345 283.812 51.2839 281.797 50.6502C279.807 49.9911 277.657 49.6616 275.347 49.6616C271.243 49.6616 267.606 50.7262 264.436 52.8555C261.266 54.9594 258.784 58.052 256.99 62.1331C255.196 66.1888 254.299 71.1445 254.299 77C254.299 82.9569 255.196 87.9759 256.99 92.057C258.809 96.1128 261.291 99.18 264.436 101.259C267.606 103.312 271.231 104.338 275.31 104.338C277.571 104.338 279.684 104.034 281.65 103.426C283.64 102.792 285.422 101.867 286.995 100.65C288.592 99.4335 289.931 97.9379 291.012 96.1635C291.136 95.9647 291.256 95.7627 291.371 95.5576C293.024 92.6155 295.756 90.0934 299.131 90.112V90.112C303.341 90.1352 306.624 93.9213 305.024 97.8156C304.639 98.7527 304.207 99.6722 303.729 100.574C302.034 103.819 299.81 106.683 297.058 109.167C294.305 111.626 291.086 113.553 287.4 114.947C283.714 116.316 279.622 117 275.126 117C268.491 117 262.568 115.416 257.359 112.247C252.149 109.079 248.045 104.503 245.047 98.5209C242.049 92.5387 240.55 85.365 240.55 77C240.55 68.6096 242.062 61.436 245.084 55.4791C248.107 49.4968 252.223 44.9214 257.432 41.7528C262.642 38.5843 268.54 37 275.126 37C279.328 37 283.235 37.6084 286.847 38.8251C290.459 40.0418 293.679 41.8289 296.505 44.1863C299.331 46.5184 301.653 49.3828 303.471 52.7795C304.144 54.0098 304.731 55.3042 305.234 56.6628Z" fill="#1D62E3"/>
<path d="M326.607 115.935C322.741 115.935 319.607 112.801 319.607 108.935V45.0646C319.607 41.1987 322.741 38.0646 326.607 38.0646H362.793C366.058 38.0646 368.705 40.7118 368.705 43.9772V43.9772C368.705 47.2426 366.058 49.8897 362.793 49.8897H340.282C336.416 49.8897 333.282 53.0237 333.282 56.8897V64.0304C333.282 67.8964 336.416 71.0304 340.282 71.0304H360.249C363.515 71.0304 366.162 73.6776 366.162 76.943V76.943C366.162 80.2084 363.515 82.8555 360.249 82.8555H340.282C336.416 82.8555 333.282 85.9895 333.282 89.8555V97.1103C333.282 100.976 336.416 104.11 340.282 104.11H363.087C366.353 104.11 369 106.757 369 110.023V110.023C369 113.288 366.353 115.935 363.087 115.935H326.607Z" fill="#1D62E3"/>
</svg>
